<?xml version="1.0" encoding="UTF-8" standalone="no"?>
<!-- @Author Vihanga nivarthana -->
<svg xmlns="http://www.w3.org/2000/svg" width="804px" height="718px" viewBox="0 0 804 718">
    <style>
@keyframes animate_t { 0% { transform: translate(0.5px,128.5px); } 50% { transform: translate(0.5px,601.5px); } 100% { transform: translate(0.5px,128.5px); } }
    </style>
    <title>Group 4</title>
    <defs>
        <filter id="filter-2" x="-12.1%" y="-13.4%" width="124.3%" height="128.4%" filterUnits="objectBoundingBox">
            <feMorphology radius="0.5" operator="dilate" in="SourceAlpha" result="shadowSpreadOuter1"/>
            <feOffset dx="0" dy="2" in="shadowSpreadOuter1" result="shadowOffsetOuter1"/>
            <feGaussianBlur stdDeviation="11" in="shadowOffsetOuter1" result="shadowBlurOuter1"/>
            <feColorMatrix values="0 0 0 0 0   0 0 0 0 0   0 0 0 0 0  0 0 0 0.5 0" type="matrix" in="shadowBlurOuter1"/>
        </filter>
    </defs>
    <g id="Page-1" stroke="none" stroke-width="1" fill="none" fill-rule="evenodd" transform="translate(402,359) translate(-402,-359)">
        <g id="Group-4" transform="translate(402,359) translate(-402,-359)">
            <rect id="Rectangle" stroke="#979797" fill-opacity="0.486369" fill="#FFFFFF" opacity="0.780134" width="717" height="717" rx="90" transform="translate(402,359) translate(-358.5,-358.5)"/>
            <g id="Combined-Shape" transform="translate(402.137,359.03) translate(-402.137,-359.03)">
                <g filter="url(#filter-2)" fill="black" fill-opacity="1" transform="translate(402.137,359.03) translate(-402.137,-359.03)">
                    <path id="path-2" d="M523.066,303.465C528.283,314.01,532.097,325.488,534.224,337.695C546.039,405.515,501.297,470.187,434.29,482.146C389.988,490.052,347.044,472.935,319.614,440.827C365.947,421.507,407.958,398.452,445.635,371.654C475.621,350.327,501.341,327.71,522.773,303.794L523.066,303.465ZM536.632,236.217C542.667,239.089,546.728,244.579,548.068,252.178C548.942,257.137,547.021,263.875,542.623,271.9L542.114,272.814C541.855,273.274,541.588,273.738,541.312,274.206L540.752,275.146C540.656,275.304,540.56,275.462,540.463,275.621L539.871,276.577C539.57,277.058,539.261,277.542,538.945,278.031L538.301,279.012C537.756,279.834,537.19,280.667,536.604,281.509L535.889,282.524L535.155,283.548C534.907,283.891,534.655,284.236,534.401,284.582L533.626,285.624L532.833,286.675L532.019,287.735L531.186,288.803C530.905,289.161,530.621,289.52,530.334,289.88L529.462,290.965L528.571,292.057L527.661,293.158L526.733,294.266L525.785,295.382C525.625,295.568,525.465,295.755,525.304,295.942C523.81,297.678,522.256,299.43,520.644,301.2L519.424,302.529C519.013,302.974,518.599,303.419,518.181,303.865L516.916,305.207C515.853,306.328,514.767,307.455,513.658,308.587L512.317,309.949C511.189,311.087,510.04,312.23,508.867,313.378L507.449,314.759C507.21,314.99,506.971,315.221,506.731,315.452L505.281,316.84L503.808,318.234C503.066,318.932,502.317,319.632,501.559,320.334L500.032,321.74L498.484,323.151C497.964,323.622,497.441,324.094,496.914,324.567L495.323,325.987C494.522,326.698,493.713,327.411,492.896,328.126L491.251,329.557C489.32,331.229,487.345,332.91,485.326,334.599L483.586,336.049C483.294,336.291,483.001,336.533,482.707,336.775L480.935,338.231L479.141,339.69C478.841,339.934,478.539,340.177,478.237,340.421L476.412,341.886C475.494,342.619,474.568,343.354,473.634,344.089L471.757,345.563C471.442,345.808,471.127,346.054,470.81,346.3L468.901,347.779L466.971,349.26C466.324,349.754,465.674,350.249,465.02,350.744L463.049,352.231L461.056,353.722L459.043,355.214L457.01,356.71L454.955,358.208L452.88,359.709C452.185,360.21,451.487,360.711,450.785,361.212L448.669,362.718L447.603,363.471L447.603,363.471L445.456,364.98L443.289,366.491C442.926,366.743,442.562,366.995,442.198,367.247C405.963,392.306,369.232,412.931,336.143,427.706L334.489,428.441C334.214,428.563,333.939,428.684,333.666,428.804L332.029,429.521L331.216,429.874L331.216,429.874L328.795,430.914L327.198,431.592L325.614,432.256C325.352,432.366,325.09,432.475,324.828,432.583L323.267,433.227L321.721,433.858L320.189,434.475L318.674,435.078L317.175,435.667L315.693,436.243L314.227,436.804L312.779,437.351L311.349,437.884L309.937,438.402L308.544,438.906L307.17,439.395L305.815,439.869L304.48,440.328L303.166,440.772C302.948,440.845,302.732,440.917,302.516,440.989L301.233,441.41L299.971,441.816C299.762,441.882,299.554,441.948,299.348,442.013L298.118,442.395C297.915,442.458,297.713,442.52,297.512,442.581L296.316,442.94C295.921,443.057,295.53,443.171,295.143,443.283L293.993,443.61L292.868,443.921L291.766,444.216C291.584,444.264,291.404,444.311,291.224,444.357L290.159,444.628C289.809,444.715,289.462,444.8,289.12,444.881L288.106,445.119L287.118,445.339C286.955,445.374,286.794,445.409,286.633,445.443L285.685,445.638L284.764,445.816C284.31,445.899,283.866,445.978,283.433,446.05L282.581,446.185C282.162,446.248,281.754,446.305,281.356,446.354L280.576,446.445C278.917,446.623,277.465,446.675,276.239,446.596C266.776,445.989,259.761,440.485,257.1,432.387C254.705,425.095,256.272,416.759,261.293,411.108C266.384,405.378,273.762,399.72,283.445,394.031C286.682,392.129,290.846,393.221,292.746,396.47C294.646,399.719,293.562,403.895,290.325,405.797C281.77,410.824,275.472,415.654,271.446,420.186C269.714,422.135,269.104,425.376,270.01,428.132C270.94,430.965,273.202,432.74,277.091,432.99C277.672,433.027,278.374,433.006,279.19,432.93L279.75,432.871C279.943,432.849,280.14,432.823,280.344,432.796L280.969,432.704C281.504,432.62,282.073,432.52,282.673,432.403L283.409,432.255L284.175,432.091C284.305,432.062,284.436,432.033,284.569,432.003L285.379,431.816C285.517,431.783,285.655,431.75,285.795,431.716L286.649,431.505C286.793,431.469,286.939,431.432,287.086,431.394L287.982,431.16C288.133,431.12,288.286,431.079,288.44,431.038L289.376,430.781C289.535,430.737,289.694,430.692,289.855,430.647L290.831,430.368C290.996,430.32,291.162,430.272,291.329,430.223L292.343,429.922L293.383,429.605L294.448,429.275L295.536,428.93L296.649,428.57L298.36,428.004L299.529,427.61L300.719,427.201L301.931,426.778L303.163,426.342L305.05,425.662L306.98,424.951C307.197,424.871,307.414,424.789,307.633,424.708L308.952,424.211L310.289,423.701L312.328,422.912L313.708,422.37L315.103,421.815L316.515,421.247L317.942,420.667L320.109,419.774L321.571,419.163L323.046,418.541L325.283,417.584L326.789,416.931L329.07,415.931L330.604,415.249C362.932,400.814,398.931,380.599,434.474,356.019L435.538,355.282L437.651,353.808C438.352,353.318,439.05,352.828,439.744,352.338L441.817,350.869L443.869,349.404L445.901,347.941L447.912,346.481L449.902,345.023L451.873,343.569C452.199,343.327,452.525,343.085,452.85,342.843L454.789,341.393C455.111,341.152,455.431,340.911,455.751,340.67L457.659,339.225L459.547,337.783L461.413,336.345L463.259,334.911L465.084,333.48L466.889,332.053C467.487,331.577,468.081,331.103,468.672,330.629L470.434,329.21L472.176,327.794L473.896,326.383C474.181,326.148,474.465,325.913,474.748,325.679L476.437,324.274L478.105,322.873C478.933,322.173,479.754,321.476,480.567,320.78L482.181,319.39L483.775,318.005L485.347,316.625L486.898,315.25C487.925,314.335,488.937,313.423,489.935,312.514L491.422,311.154C492.898,309.796,494.342,308.446,495.753,307.104L497.153,305.766L498.532,304.432C498.76,304.21,498.987,303.989,499.214,303.768L500.56,302.443C501.45,301.562,502.326,300.684,503.188,299.811L504.469,298.504L505.728,297.203L506.965,295.908C507.17,295.693,507.373,295.478,507.576,295.263L508.78,293.977C510.173,292.482,511.52,290.999,512.823,289.53L513.928,288.274C514.11,288.065,514.292,287.857,514.472,287.649L515.011,287.025C516.017,285.857,516.987,284.704,517.921,283.568L518.844,282.438C519.299,281.876,519.745,281.319,520.182,280.765L521.044,279.665C521.185,279.483,521.326,279.301,521.465,279.12L522.291,278.038C522.833,277.321,523.358,276.613,523.867,275.914L524.618,274.871C525.48,273.663,526.292,272.483,527.051,271.333L527.69,270.355C527.794,270.193,527.897,270.032,528,269.871L528.6,268.916C529.58,267.336,530.453,265.82,531.218,264.375L531.391,264.044L531.725,263.395C531.779,263.288,531.832,263.182,531.884,263.077L532.189,262.453C532.288,262.248,532.384,262.046,532.476,261.847L532.745,261.259L532.995,260.69C533.035,260.597,533.075,260.504,533.113,260.413L533.337,259.873L533.543,259.354C533.576,259.269,533.608,259.185,533.639,259.102L533.819,258.614L533.982,258.148L534.128,257.704L534.257,257.284L534.37,256.886C534.404,256.758,534.436,256.633,534.466,256.513L534.546,256.164C534.582,255.996,534.611,255.838,534.636,255.689L534.676,255.404C534.719,255.043,534.721,254.752,534.683,254.539C533.667,248.777,529.761,246.835,523.466,247.865L523.008,247.945L522.678,248.011L522.329,248.091L521.959,248.182L521.57,248.287L521.16,248.403L520.731,248.532L520.05,248.748L519.325,248.992L518.817,249.17L518.018,249.459L517.461,249.668L516.886,249.889L515.986,250.243L515.043,250.624L514.057,251.033L512.676,251.621L511.22,252.257L510.08,252.766L508.494,253.487L506.834,254.256L505.102,255.073L503.755,255.717L502.367,256.388L500.454,257.325L498.471,258.309L496.416,259.341L495.363,259.875C492.016,261.576,487.926,260.232,486.226,256.873C484.527,253.514,485.862,249.412,489.209,247.711L490.383,247.116L492.671,245.967L494.335,245.142L495.953,244.346L497.528,243.581L499.058,242.847L500.054,242.375L501.987,241.47L503.387,240.827L504.743,240.214L506.057,239.632L506.909,239.26L508.152,238.728L509.353,238.226L510.13,237.907L511.261,237.455L511.992,237.171L512.704,236.899L513.399,236.641L514.406,236.279L515.055,236.054C515.162,236.017,515.268,235.981,515.373,235.946L515.995,235.741L516.599,235.549L517.185,235.37L517.754,235.205L518.305,235.052L518.838,234.913L519.354,234.787L519.852,234.674L520.333,234.574C520.49,234.541,520.645,234.514,520.797,234.487C526.32,233.513,531.878,233.955,536.632,236.217ZM510.408,283.097C489.287,307.611,463.319,330.842,432.473,352.781C394.91,379.497,352.776,402.403,306.054,421.49C299.118,409.283,294.126,395.669,291.571,381.001C279.756,313.182,324.498,248.509,391.504,236.55C438.154,228.225,483.297,247.645,510.408,283.097Z" transform="translate(402.137,359.03) translate(-402.137,-359.03)"/>
                </g>
                <g fill="#FFFFFF" fill-rule="evenodd" transform="translate(402.137,359.03) translate(-402.137,-359.03)">
                    <path id="path-3" d="M523.066,303.465C528.283,314.01,532.097,325.488,534.224,337.695C546.039,405.515,501.297,470.187,434.29,482.146C389.988,490.052,347.044,472.935,319.614,440.827C365.947,421.507,407.958,398.452,445.635,371.654C475.621,350.327,501.341,327.71,522.773,303.794L523.066,303.465ZM536.632,236.217C542.667,239.089,546.728,244.579,548.068,252.178C548.942,257.137,547.021,263.875,542.623,271.9L542.114,272.814C541.855,273.274,541.588,273.738,541.312,274.206L540.752,275.146C540.656,275.304,540.56,275.462,540.463,275.621L539.871,276.577C539.57,277.058,539.261,277.542,538.945,278.031L538.301,279.012C537.756,279.834,537.19,280.667,536.604,281.509L535.889,282.524L535.155,283.548C534.907,283.891,534.655,284.236,534.401,284.582L533.626,285.624L532.833,286.675L532.019,287.735L531.186,288.803C530.905,289.161,530.621,289.52,530.334,289.88L529.462,290.965L528.571,292.057L527.661,293.158L526.733,294.266L525.785,295.382C525.625,295.568,525.465,295.755,525.304,295.942C523.81,297.678,522.256,299.43,520.644,301.2L519.424,302.529C519.013,302.974,518.599,303.419,518.181,303.865L516.916,305.207C515.853,306.328,514.767,307.455,513.658,308.587L512.317,309.949C511.189,311.087,510.04,312.23,508.867,313.378L507.449,314.759C507.21,314.99,506.971,315.221,506.731,315.452L505.281,316.84L503.808,318.234C503.066,318.932,502.317,319.632,501.559,320.334L500.032,321.74L498.484,323.151C497.964,323.622,497.441,324.094,496.914,324.567L495.323,325.987C494.522,326.698,493.713,327.411,492.896,328.126L491.251,329.557C489.32,331.229,487.345,332.91,485.326,334.599L483.586,336.049C483.294,336.291,483.001,336.533,482.707,336.775L480.935,338.231L479.141,339.69C478.841,339.934,478.539,340.177,478.237,340.421L476.412,341.886C475.494,342.619,474.568,343.354,473.634,344.089L471.757,345.563C471.442,345.808,471.127,346.054,470.81,346.3L468.901,347.779L466.971,349.26C466.324,349.754,465.674,350.249,465.02,350.744L463.049,352.231L461.056,353.722L459.043,355.214L457.01,356.71L454.955,358.208L452.88,359.709C452.185,360.21,451.487,360.711,450.785,361.212L448.669,362.718L447.603,363.471L447.603,363.471L445.456,364.98L443.289,366.491C442.926,366.743,442.562,366.995,442.198,367.247C405.963,392.306,369.232,412.931,336.143,427.706L334.489,428.441C334.214,428.563,333.939,428.684,333.666,428.804L332.029,429.521L331.216,429.874L331.216,429.874L328.795,430.914L327.198,431.592L325.614,432.256C325.352,432.366,325.09,432.475,324.828,432.583L323.267,433.227L321.721,433.858L320.189,434.475L318.674,435.078L317.175,435.667L315.693,436.243L314.227,436.804L312.779,437.351L311.349,437.884L309.937,438.402L308.544,438.906L307.17,439.395L305.815,439.869L304.48,440.328L303.166,440.772C302.948,440.845,302.732,440.917,302.516,440.989L301.233,441.41L299.971,441.816C299.762,441.882,299.554,441.948,299.348,442.013L298.118,442.395C297.915,442.458,297.713,442.52,297.512,442.581L296.316,442.94C295.921,443.057,295.53,443.171,295.143,443.283L293.993,443.61L292.868,443.921L291.766,444.216C291.584,444.264,291.404,444.311,291.224,444.357L290.159,444.628C289.809,444.715,289.462,444.8,289.12,444.881L288.106,445.119L287.118,445.339C286.955,445.374,286.794,445.409,286.633,445.443L285.685,445.638L284.764,445.816C284.31,445.899,283.866,445.978,283.433,446.05L282.581,446.185C282.162,446.248,281.754,446.305,281.356,446.354L280.576,446.445C278.917,446.623,277.465,446.675,276.239,446.596C266.776,445.989,259.761,440.485,257.1,432.387C254.705,425.095,256.272,416.759,261.293,411.108C266.384,405.378,273.762,399.72,283.445,394.031C286.682,392.129,290.846,393.221,292.746,396.47C294.646,399.719,293.562,403.895,290.325,405.797C281.77,410.824,275.472,415.654,271.446,420.186C269.714,422.135,269.104,425.376,270.01,428.132C270.94,430.965,273.202,432.74,277.091,432.99C277.672,433.027,278.374,433.006,279.19,432.93L279.75,432.871C279.943,432.849,280.14,432.823,280.344,432.796L280.969,432.704C281.504,432.62,282.073,432.52,282.673,432.403L283.409,432.255L284.175,432.091C284.305,432.062,284.436,432.033,284.569,432.003L285.379,431.816C285.517,431.783,285.655,431.75,285.795,431.716L286.649,431.505C286.793,431.469,286.939,431.432,287.086,431.394L287.982,431.16C288.133,431.12,288.286,431.079,288.44,431.038L289.376,430.781C289.535,430.737,289.694,430.692,289.855,430.647L290.831,430.368C290.996,430.32,291.162,430.272,291.329,430.223L292.343,429.922L293.383,429.605L294.448,429.275L295.536,428.93L296.649,428.57L298.36,428.004L299.529,427.61L300.719,427.201L301.931,426.778L303.163,426.342L305.05,425.662L306.98,424.951C307.197,424.871,307.414,424.789,307.633,424.708L308.952,424.211L310.289,423.701L312.328,422.912L313.708,422.37L315.103,421.815L316.515,421.247L317.942,420.667L320.109,419.774L321.571,419.163L323.046,418.541L325.283,417.584L326.789,416.931L329.07,415.931L330.604,415.249C362.932,400.814,398.931,380.599,434.474,356.019L435.538,355.282L437.651,353.808C438.352,353.318,439.05,352.828,439.744,352.338L441.817,350.869L443.869,349.404L445.901,347.941L447.912,346.481L449.902,345.023L451.873,343.569C452.199,343.327,452.525,343.085,452.85,342.843L454.789,341.393C455.111,341.152,455.431,340.911,455.751,340.67L457.659,339.225L459.547,337.783L461.413,336.345L463.259,334.911L465.084,333.48L466.889,332.053C467.487,331.577,468.081,331.103,468.672,330.629L470.434,329.21L472.176,327.794L473.896,326.383C474.181,326.148,474.465,325.913,474.748,325.679L476.437,324.274L478.105,322.873C478.933,322.173,479.754,321.476,480.567,320.78L482.181,319.39L483.775,318.005L485.347,316.625L486.898,315.25C487.925,314.335,488.937,313.423,489.935,312.514L491.422,311.154C492.898,309.796,494.342,308.446,495.753,307.104L497.153,305.766L498.532,304.432C498.76,304.21,498.987,303.989,499.214,303.768L500.56,302.443C501.45,301.562,502.326,300.684,503.188,299.811L504.469,298.504L505.728,297.203L506.965,295.908C507.17,295.693,507.373,295.478,507.576,295.263L508.78,293.977C510.173,292.482,511.52,290.999,512.823,289.53L513.928,288.274C514.11,288.065,514.292,287.857,514.472,287.649L515.011,287.025C516.017,285.857,516.987,284.704,517.921,283.568L518.844,282.438C519.299,281.876,519.745,281.319,520.182,280.765L521.044,279.665C521.185,279.483,521.326,279.301,521.465,279.12L522.291,278.038C522.833,277.321,523.358,276.613,523.867,275.914L524.618,274.871C525.48,273.663,526.292,272.483,527.051,271.333L527.69,270.355C527.794,270.193,527.897,270.032,528,269.871L528.6,268.916C529.58,267.336,530.453,265.82,531.218,264.375L531.391,264.044L531.725,263.395C531.779,263.288,531.832,263.182,531.884,263.077L532.189,262.453C532.288,262.248,532.384,262.046,532.476,261.847L532.745,261.259L532.995,260.69C533.035,260.597,533.075,260.504,533.113,260.413L533.337,259.873L533.543,259.354C533.576,259.269,533.608,259.185,533.639,259.102L533.819,258.614L533.982,258.148L534.128,257.704L534.257,257.284L534.37,256.886C534.404,256.758,534.436,256.633,534.466,256.513L534.546,256.164C534.582,255.996,534.611,255.838,534.636,255.689L534.676,255.404C534.719,255.043,534.721,254.752,534.683,254.539C533.667,248.777,529.761,246.835,523.466,247.865L523.008,247.945L522.678,248.011L522.329,248.091L521.959,248.182L521.57,248.287L521.16,248.403L520.731,248.532L520.05,248.748L519.325,248.992L518.817,249.17L518.018,249.459L517.461,249.668L516.886,249.889L515.986,250.243L515.043,250.624L514.057,251.033L512.676,251.621L511.22,252.257L510.08,252.766L508.494,253.487L506.834,254.256L505.102,255.073L503.755,255.717L502.367,256.388L500.454,257.325L498.471,258.309L496.416,259.341L495.363,259.875C492.016,261.576,487.926,260.232,486.226,256.873C484.527,253.514,485.862,249.412,489.209,247.711L490.383,247.116L492.671,245.967L494.335,245.142L495.953,244.346L497.528,243.581L499.058,242.847L500.054,242.375L501.987,241.47L503.387,240.827L504.743,240.214L506.057,239.632L506.909,239.26L508.152,238.728L509.353,238.226L510.13,237.907L511.261,237.455L511.992,237.171L512.704,236.899L513.399,236.641L514.406,236.279L515.055,236.054C515.162,236.017,515.268,235.981,515.373,235.946L515.995,235.741L516.599,235.549L517.185,235.37L517.754,235.205L518.305,235.052L518.838,234.913L519.354,234.787L519.852,234.674L520.333,234.574C520.49,234.541,520.645,234.514,520.797,234.487C526.32,233.513,531.878,233.955,536.632,236.217ZM510.408,283.097C489.287,307.611,463.319,330.842,432.473,352.781C394.91,379.497,352.776,402.403,306.054,421.49C299.118,409.283,294.126,395.669,291.571,381.001C279.756,313.182,324.498,248.509,391.504,236.55C438.154,228.225,483.297,247.645,510.408,283.097Z" transform="translate(402.137,359.03) translate(-402.137,-359.03)"/>
                </g>
            </g>
            <rect id="animate" stroke="#979797" fill-opacity="0.486369" fill="#FFFFFF" opacity="0.780134" width="803" height="26" rx="13" transform="translate(402,141.5) translate(-401.5,-13)" style="animation: 2s linear infinite both animate_t;"/>
        </g>
    </g>
</svg>
